<svg width="56" height="68" viewBox="0 0 56 68" fill="none" xmlns="http://www.w3.org/2000/svg">
<path fill-rule="evenodd" clip-rule="evenodd" d="M28.061 0C20.6766 0 13.9495 2.81846 9.96873 5.1212C9.60908 5.329 9.27395 5.53302 8.9617 5.72948C8.34375 6.11862 7.81735 6.48132 7.39884 6.80057L11.9272 14.5041L14.059 15.4845C22.3899 20.3412 33.5621 20.3412 41.8946 15.4845L44.3141 14.0337L48.5956 6.80057C47.7088 6.13195 46.7866 5.52816 45.8344 4.99275C41.8733 2.71456 35.3064 0 28.0626 0H28.061ZM17.5297 8.71984C15.9261 8.37312 14.3423 7.91386 12.7871 7.34461C16.5161 5.43101 22.0727 3.40028 28.061 3.40028C32.2085 3.40028 36.1303 4.37503 39.3737 5.61047C35.5729 6.22819 31.5169 7.27661 27.6523 8.56682C24.6116 9.58313 21.0575 9.47357 17.5297 8.71984ZM43.6209 18.286L43.2188 18.5202C34.0541 23.8624 21.8978 23.8624 12.7332 18.5202L12.3523 18.2973C-1.41596 35.754 -11.9277 68 28.061 68C68.0496 68 57.2813 35.1514 43.6209 18.286ZM26.3624 34.0028C25.4953 34.0028 24.6637 34.4009 24.0505 35.1094C23.4373 35.8179 23.0928 36.7789 23.0928 37.7809C23.0928 38.7829 23.4373 39.7439 24.0505 40.4524C24.6637 41.161 25.4953 41.559 26.3624 41.559V34.0028ZM29.632 30.2247V28.3357H26.3624V30.2247C24.6281 30.2247 22.9649 31.0208 21.7385 32.4379C20.5122 33.855 19.8233 35.7769 19.8233 37.7809C19.8233 39.785 20.5122 41.7069 21.7385 43.124C22.9649 44.541 24.6281 45.3371 26.3624 45.3371V52.8933C24.9402 52.8933 23.7288 51.8449 23.2776 50.3752C23.2106 50.1347 23.1026 49.9123 22.96 49.7209C22.8173 49.5295 22.6429 49.3731 22.447 49.261C22.2512 49.1489 22.0378 49.0833 21.8196 49.0681C21.6014 49.0529 21.3828 49.0884 21.1767 49.1726C20.9706 49.2567 20.7812 49.3878 20.6197 49.558C20.4582 49.7282 20.3279 49.9341 20.2365 50.1635C20.145 50.3929 20.0943 50.6412 20.0874 50.8937C20.0804 51.1461 20.1174 51.3976 20.196 51.6333C20.6469 53.1067 21.4821 54.3824 22.5864 55.2846C23.6907 56.1869 25.0099 56.6714 26.3624 56.6714V58.5604H29.632V56.6714C31.3663 56.6714 33.0296 55.8753 34.2559 54.4582C35.4822 53.0412 36.1712 51.1192 36.1712 49.1152C36.1712 47.1112 35.4822 45.1892 34.2559 43.7722C33.0296 42.3551 31.3663 41.559 29.632 41.559V34.0028C31.0543 34.0028 32.2657 35.0513 32.7169 36.5209C32.7838 36.7614 32.8918 36.9839 33.0345 37.1752C33.1771 37.3666 33.3515 37.523 33.5474 37.6351C33.7433 37.7472 33.9566 37.8128 34.1748 37.828C34.393 37.8432 34.6116 37.8077 34.8177 37.7235C35.0238 37.6394 35.2132 37.5084 35.3747 37.3382C35.5362 37.1679 35.6666 36.962 35.758 36.7326C35.8494 36.5032 35.9001 36.2549 35.9071 36.0025C35.914 35.75 35.8771 35.4985 35.7985 35.2628C35.3475 33.7894 34.5124 32.5138 33.4081 31.6115C32.3037 30.7093 30.9845 30.2248 29.632 30.2247ZM29.632 45.3371V52.8933C30.4992 52.8933 31.3308 52.4952 31.944 51.7867C32.5571 51.0782 32.9016 50.1172 32.9016 49.1152C32.9016 48.1132 32.5571 47.1522 31.944 46.4437C31.3308 45.7352 30.4992 45.3371 29.632 45.3371Z" fill="#4D4239"/>
</svg>
