<svg width="67" height="52" viewBox="0 0 67 52" fill="none" xmlns="http://www.w3.org/2000/svg">
<path d="M51.7503 46.5833C50.5403 46.5833 49.3798 46.0829 48.5242 45.1921C47.6685 44.3013 47.1878 43.0931 47.1878 41.8333C47.1878 40.5736 47.6685 39.3654 48.5242 38.4746C49.3798 37.5838 50.5403 37.0833 51.7503 37.0833C52.9604 37.0833 54.1209 37.5838 54.9765 38.4746C55.8321 39.3654 56.3128 40.5736 56.3128 41.8333C56.3128 43.0931 55.8321 44.3013 54.9765 45.1921C54.1209 46.0829 52.9604 46.5833 51.7503 46.5833ZM56.3128 18.0833L62.2745 26H48.7087V18.0833M15.2503 46.5833C14.0403 46.5833 12.8798 46.0829 12.0242 45.1921C11.1685 44.3013 10.6878 43.0931 10.6878 41.8333C10.6878 40.5736 11.1685 39.3654 12.0242 38.4746C12.8798 37.5838 14.0403 37.0833 15.2503 37.0833C16.4604 37.0833 17.6209 37.5838 18.4765 38.4746C19.3321 39.3654 19.8128 40.5736 19.8128 41.8333C19.8128 43.0931 19.3321 44.3013 18.4765 45.1921C17.6209 46.0829 16.4604 46.5833 15.2503 46.5833ZM57.8337 13.3333H48.7087V0.666664H6.12533C2.74908 0.666664 0.0419922 3.485 0.0419922 7V41.8333H6.12533C6.12533 44.3529 7.08671 46.7693 8.79798 48.5508C10.5092 50.3324 12.8302 51.3333 15.2503 51.3333C17.6704 51.3333 19.9914 50.3324 21.7027 48.5508C23.4139 46.7693 24.3753 44.3529 24.3753 41.8333H42.6253C42.6253 44.3529 43.5867 46.7693 45.298 48.5508C47.0093 50.3324 49.3302 51.3333 51.7503 51.3333C54.1704 51.3333 56.4914 50.3324 58.2027 48.5508C59.914 46.7693 60.8753 44.3529 60.8753 41.8333H66.9587V26L57.8337 13.3333Z" fill="#C4C4C4"/>
</svg>
