<svg width="47" height="56" viewBox="0 0 47 56" fill="none" xmlns="http://www.w3.org/2000/svg">
<path fill-rule="evenodd" clip-rule="evenodd" d="M9.13889 0.291824C5.85411 0.508039 3.78089 1.12579 2.29517 2.8864C-1.55634e-07 5.60143 0 9.96896 0 18.704V37.2367C0 45.9748 -1.55634e-07 50.3424 2.29517 53.0574C4.58772 55.7693 8.28244 55.7693 15.6667 55.7693H31.3333C38.7176 55.7693 42.4123 55.7693 44.7048 53.0574C47 50.3393 47 45.9748 47 37.2367V18.704C47 9.96896 47 5.60143 44.7048 2.8864C43.2191 1.12579 41.1459 0.508039 37.8611 0.291824V1.72193C37.8611 4.17951 37.0358 6.53644 35.5668 8.27421C34.0977 10.012 32.1053 10.9883 30.0278 10.9883H16.9722C14.8947 10.9883 12.9023 10.012 11.4332 8.27421C9.96418 6.53644 9.13889 4.17951 9.13889 1.72193V0.291824ZM8.48611 20.2546C8.48611 19.6402 8.69244 19.051 9.05969 18.6165C9.42695 18.1821 9.92506 17.938 10.4444 17.938H36.5556C37.0749 17.938 37.5731 18.1821 37.9403 18.6165C38.3076 19.051 38.5139 19.6402 38.5139 20.2546C38.5139 20.869 38.3076 21.4582 37.9403 21.8927C37.5731 22.3271 37.0749 22.5712 36.5556 22.5712H10.4444C9.92506 22.5712 9.42695 22.3271 9.05969 21.8927C8.69244 21.4582 8.48611 20.869 8.48611 20.2546ZM11.0972 31.0653C11.0972 30.4509 11.3035 29.8617 11.6708 29.4272C12.0381 28.9928 12.5362 28.7487 13.0556 28.7487H33.9444C34.4638 28.7487 34.9619 28.9928 35.3292 29.4272C35.6965 29.8617 35.9028 30.4509 35.9028 31.0653C35.9028 31.6797 35.6965 32.2689 35.3292 32.7034C34.9619 33.1378 34.4638 33.3819 33.9444 33.3819H13.0556C12.5362 33.3819 12.0381 33.1378 11.6708 32.7034C11.3035 32.2689 11.0972 31.6797 11.0972 31.0653ZM13.7083 41.876C13.7083 41.2616 13.9147 40.6724 14.2819 40.2379C14.6492 39.8035 15.1473 39.5594 15.6667 39.5594H31.3333C31.8527 39.5594 32.3508 39.8035 32.7181 40.2379C33.0853 40.6724 33.2917 41.2616 33.2917 41.876C33.2917 42.4904 33.0853 43.0796 32.7181 43.5141C32.3508 43.9485 31.8527 44.1926 31.3333 44.1926H15.6667C15.1473 44.1926 14.6492 43.9485 14.2819 43.5141C13.9147 43.0796 13.7083 42.4904 13.7083 41.876Z" fill="#4D4239"/>
</svg>
