<svg width="59" height="53" viewBox="0 0 59 53" fill="none" xmlns="http://www.w3.org/2000/svg">
<path d="M34.2913 4.11576L39.4369 13.3647C40.1386 14.6522 42.0097 15.8871 43.5885 16.1236L52.9149 17.5162C58.8792 18.4096 60.2825 22.2983 55.9847 26.1345L48.7341 32.6508C47.5062 33.7544 46.8337 35.8827 47.2138 37.4067L49.2896 45.4732C50.9268 51.8581 47.1553 54.328 40.8695 50.991L32.1278 46.3403C30.549 45.4995 27.947 45.4995 26.339 46.3403L17.5972 50.991C11.3406 54.328 7.53988 51.8318 9.17712 45.4732L11.2529 37.4067C11.633 35.8827 10.9605 33.7544 9.73261 32.6508L2.48198 26.1345C-1.78654 22.2983 -0.412431 18.4096 5.5518 17.5162L14.8782 16.1236C16.4278 15.8871 18.2989 14.6522 19.0006 13.3647L24.1463 4.11576C26.953 -0.902843 31.5138 -0.902843 34.2913 4.11576Z" fill="#C4C4C4"/>
</svg>
