<svg width="16" height="15" viewBox="0 0 16 15" fill="none" xmlns="http://www.w3.org/2000/svg">
<path fill-rule="evenodd" clip-rule="evenodd" d="M8.59228 0.494177C9.35174 0.122441 10.0142 -1.01348e-06 11.042 1.151e-05C13.6722 0.0109037 15.6189 2.22913 15.6189 5.05476C15.6189 7.21149 14.4164 9.29486 12.1765 11.3094C11.0007 12.3669 9.49961 13.4133 8.42455 13.97L7.80945 14.2885L7.19435 13.97C6.11929 13.4133 4.61815 12.3669 3.44243 11.3094C1.20254 9.29486 0 7.21149 0 5.05476C0 2.1989 1.92853 0 4.5824 0C5.57331 0 6.26979 0.134021 7.04399 0.516939C7.31353 0.650256 7.56678 0.808393 7.80233 0.99092C8.04731 0.797552 8.3111 0.631806 8.59228 0.494177ZM11.227 10.2537C13.1953 8.48342 14.199 6.74445 14.199 5.05476C14.199 2.97395 12.8417 1.42738 11.0391 1.41991C10.2141 1.4199 9.75888 1.50402 9.21652 1.7695C8.8829 1.93279 8.58692 2.15324 8.32874 2.43339L7.81111 2.99507L7.28872 2.43781C7.03623 2.16845 6.74453 1.95291 6.41449 1.78967C5.85576 1.51332 5.37026 1.4199 4.5824 1.4199C2.75719 1.4199 1.4199 2.94467 1.4199 5.05476C1.4199 6.74445 2.42364 8.48342 4.39195 10.2537C5.46507 11.2189 6.84465 12.1834 7.80945 12.6894C8.77424 12.1834 10.1538 11.2189 11.227 10.2537Z" fill="#5E5E5E"/>
</svg>
