<svg width="25" height="25" viewBox="0 0 25 25" fill="none" xmlns="http://www.w3.org/2000/svg">
<path fill-rule="evenodd" clip-rule="evenodd" d="M5.0656 6.87883H9.66472V9.295H1.20809V0.838379H3.62427V4.78925C5.70835 2.26696 8.69313 0.838379 12.0809 0.838379C18.753 0.838379 24.1618 6.24718 24.1618 12.9193C21.7456 12.9193 24.1618 12.9193 21.7456 12.9193C21.7456 7.5816 17.4186 3.25456 12.0809 3.25456C9.18918 3.25456 6.70917 4.55772 5.0656 6.87883ZM19.0962 18.9597H14.4971V16.5435H22.9537V25.0002H20.5375V21.0493C18.4534 23.5716 15.4687 25.0002 12.0809 25.0002C5.4088 25.0002 0 19.5914 0 12.9193H2.41618C2.41618 18.2569 6.74322 22.584 12.0809 22.584C14.9726 22.584 17.4526 21.2808 19.0962 18.9597Z" fill="black"/>
</svg>
