<svg width="25" height="25" viewBox="0 0 25 25" fill="none" xmlns="http://www.w3.org/2000/svg">
<path fill-rule="evenodd" clip-rule="evenodd" d="M23.2733 0.126221L24.4644 21.5655C24.5378 22.8873 23.5258 24.0183 22.2041 24.0917C22.1377 24.0948 22.1377 24.0948 22.0711 24.0954H3.03266C1.70888 24.0954 0.635742 23.0223 0.635742 21.6985C0.636357 21.632 0.636357 21.632 0.639432 21.5655L1.8305 0.126221H23.2733ZM4.09796 2.52314L3.03266 21.6985H22.0711L21.0058 2.52314H4.09796ZM6.55961 4.92006H8.95653V7.9162C8.95653 9.41233 10.6166 10.9124 12.5519 10.9124C14.4872 10.9124 16.1473 9.41233 16.1473 7.9162V4.92006H18.5442V7.9162C18.5442 10.7933 15.7599 13.3093 12.5519 13.3093C9.34391 13.3093 6.55961 10.7933 6.55961 7.9162V4.92006Z" fill="black"/>
</svg>
