<svg width="32" height="22" viewBox="0 0 32 22" fill="none" xmlns="http://www.w3.org/2000/svg">
<path fill-rule="evenodd" clip-rule="evenodd" d="M27.407 15.8308H29.0639V10.9269L25.1355 8.30793L22.5279 3.09281H3.58799V15.8308H5.24492C5.82781 14.1816 7.40058 13.0001 9.24931 13.0001C11.098 13.0001 12.6708 14.1816 13.2537 15.8308H19.3982C19.9811 14.1816 21.5539 13.0001 23.4026 13.0001C25.2513 13.0001 26.8241 14.1816 27.407 15.8308ZM27.407 18.6614C26.8241 20.3106 25.2513 21.4921 23.4026 21.4921C21.5539 21.4921 19.9811 20.3106 19.3982 18.6614H13.2537C12.6708 20.3106 11.098 21.4921 9.24931 21.4921C7.40058 21.4921 5.82781 20.3106 5.24492 18.6614H3.58799C2.02465 18.6614 0.757324 17.3941 0.757324 15.8308V3.09281C0.757324 1.52948 2.02465 0.262146 3.58799 0.262146H22.5279C23.6001 0.262146 24.5802 0.867914 25.0597 1.8269L27.3311 6.36966L31.8946 9.412V15.8308C31.8946 17.3941 30.6273 18.6614 29.0639 18.6614H27.407ZM9.24931 18.6614C10.031 18.6614 10.6646 18.0278 10.6646 17.2461C10.6646 16.4644 10.031 15.8308 9.24931 15.8308C8.46764 15.8308 7.83398 16.4644 7.83398 17.2461C7.83398 18.0278 8.46764 18.6614 9.24931 18.6614ZM23.4026 18.6614C24.1843 18.6614 24.8179 18.0278 24.8179 17.2461C24.8179 16.4644 24.1843 15.8308 23.4026 15.8308C22.6209 15.8308 21.9873 16.4644 21.9873 17.2461C21.9873 18.0278 22.6209 18.6614 23.4026 18.6614Z" fill="black"/>
</svg>
