<svg width="25" height="31" viewBox="0 0 25 31" fill="none" xmlns="http://www.w3.org/2000/svg">
<path fill-rule="evenodd" clip-rule="evenodd" d="M4.53034 12.6287V8.09841C4.53034 3.92835 7.91084 0.547852 12.0809 0.547852C16.251 0.547852 19.6315 3.92835 19.6315 8.09841V12.6287H21.1416C22.7549 12.6287 24.1618 13.8012 24.1618 15.3973V27.9815C24.1618 29.5777 22.7549 30.7501 21.1416 30.7501H3.02022C1.40689 30.7501 0 29.5777 0 27.9815V15.3973C0 13.8012 1.40689 12.6287 3.02022 12.6287H4.53034ZM7.55056 12.6287H16.6112V8.09841C16.6112 5.59638 14.5829 3.56808 12.0809 3.56808C9.57886 3.56808 7.55056 5.59638 7.55056 8.09841V12.6287ZM3.02022 15.649V27.7299H21.1416V15.649H3.02022ZM12.0809 23.1995C11.2469 23.1995 10.5708 22.5234 10.5708 21.6894C10.5708 20.8554 11.2469 20.1793 12.0809 20.1793C12.9149 20.1793 13.591 20.8554 13.591 21.6894C13.591 22.5234 12.9149 23.1995 12.0809 23.1995Z" fill="black"/>
</svg>
